<?xml version="1.0" encoding="utf-8"?>
<!-- Generator: Adobe Illustrator 19.0.0, SVG Export Plug-In . SVG Version: 6.00 Build 0)  -->
<svg version="1.1" id="Layer_1" xmlns="http://www.w3.org/2000/svg" xmlns:xlink="http://www.w3.org/1999/xlink" x="0px" y="0px"
	 viewBox="131 28 478 162" style="enable-background:new 131 28 478 162;" xml:space="preserve">
<style type="text/css">
	.st0{fill:#FFFFFF;}
	.st1{fill:#1EB980;}
</style>
<g>
	<g>
		<path class="st0" d="M199.3,61.6c10.1,0,18.6,3.4,25.4,10.1c6.8,6.7,10.2,15.1,10.2,24.9s-3.4,18.1-10.2,24.9
			c-6.8,6.8-15.1,10.2-24.9,10.2c-9.9,0-18.3-3.4-25.1-10.2c-6.8-6.8-10.2-15-10.2-24.6c0-6.4,1.6-12.4,4.7-17.8
			c3.1-5.5,7.3-9.8,12.7-12.9C187.3,63.1,193.1,61.6,199.3,61.6z M199.6,68.1c-4.9,0-9.6,1.3-14.1,3.9c-4.4,2.6-7.9,6-10.4,10.4
			s-3.7,9.2-3.7,14.6c0,7.9,2.8,14.6,8.3,20.1s12.1,8.2,19.9,8.2c5.2,0,10-1.3,14.4-3.8s7.9-6,10.3-10.3c2.5-4.4,3.7-9.2,3.7-14.5
			c0-5.3-1.2-10.1-3.7-14.4s-5.9-7.7-10.4-10.3C209.4,69.4,204.6,68.1,199.6,68.1z"/>
		<path class="st0" d="M275.6,63.3l31.1,66.8h-7.2l-10.5-22h-28.8l-10.4,22h-7.4L274,63.3H275.6z M274.8,77.4l-11.4,24.2h22.8
			L274.8,77.4z"/>
		<path class="st0" d="M314.1,130l9.6-66.8h1.1l27.1,54.8l26.9-54.8h1.1l9.6,66.8H383l-6.6-47.8L352.7,130H351l-23.9-48.1l-6.6,48.1
			H314.1z"/>
		<path class="st0" d="M402.7,63.3h13.2c5.3,0,9.4,0.6,12.2,1.9c2.8,1.3,5.1,3.2,6.7,5.8s2.5,5.5,2.5,8.7c0,3-0.7,5.7-2.2,8.1
			c-1.4,2.4-3.6,4.4-6.4,5.9c3.5,1.2,6.1,2.6,8,4.2s3.3,3.5,4.4,5.8c1,2.3,1.6,4.7,1.6,7.3c0,5.4-2,9.9-5.9,13.6s-9.2,5.6-15.8,5.6
			h-18.3L402.7,63.3L402.7,63.3z M409.3,69.8v21.4h3.8c4.6,0,8.1-0.4,10.2-1.3c2.2-0.9,3.9-2.2,5.2-4.1c1.3-1.9,1.9-3.9,1.9-6.2
			c0-3.1-1.1-5.5-3.2-7.2c-2.1-1.7-5.5-2.6-10.2-2.6H409.3z M409.3,97.9v25.6h8.3c4.9,0,8.5-0.5,10.7-1.4c2.3-1,4.1-2.4,5.5-4.5
			c1.4-2,2.1-4.2,2.1-6.6c0-3-1-5.6-2.9-7.8c-1.9-2.2-4.6-3.7-8-4.5c-2.3-0.5-6.2-0.8-11.9-0.8C413.1,97.9,409.3,97.9,409.3,97.9z"
			/>
	</g>
	<g>
		<g>
			<path class="st1" d="M495.5,65c5.9,0,11.4,1.5,16.6,4.5c5.2,3,9.3,7,12.1,12c2.9,5,4.3,10.6,4.3,16.7c0,6.2-1.4,11.8-4.3,16.9
				s-6.9,9.1-12,12c-5.1,2.9-10.7,4.4-16.7,4.4c-9,0-16.7-3.2-23.1-9.5c-6.4-6.4-9.6-14.1-9.6-23.4c0-6.2,1.4-11.9,4.3-17
				s6.9-9.1,12.1-12.1C484.3,66.5,489.8,65,495.5,65 M495.5,61c-6.4,0-12.6,1.7-18.3,5c-5.7,3.3-10.3,7.9-13.5,13.6
				c-3.2,5.7-4.9,12-4.9,18.9c0,10.3,3.6,19.1,10.8,26.2c7.1,7.1,15.9,10.7,26,10.7c6.7,0,13-1.7,18.7-4.9
				c5.7-3.3,10.3-7.8,13.5-13.5c3.2-5.7,4.8-12,4.8-18.9c0-6.8-1.6-13.1-4.8-18.7c-3.2-5.6-7.8-10.1-13.6-13.4
				C508.3,62.7,502,61,495.5,61L495.5,61z"/>
		</g>
	</g>
	<g>
		<g>
			<path class="st1" d="M535.5,65c5.9,0,11.4,1.5,16.6,4.5c5.2,3,9.3,7,12.1,12c2.9,5,4.3,10.6,4.3,16.7c0,6.2-1.4,11.8-4.3,16.9
				s-6.9,9.1-12,12s-10.7,4.4-16.7,4.4c-9,0-16.7-3.2-23.1-9.5c-6.4-6.4-9.6-14.1-9.6-23.4c0-6.2,1.4-11.9,4.3-17s6.9-9.1,12.1-12.1
				C524.3,66.5,529.8,65,535.5,65 M535.5,61c-6.4,0-12.6,1.7-18.3,5c-5.7,3.3-10.3,7.9-13.5,13.6c-3.2,5.7-4.9,12-4.9,18.9
				c0,10.3,3.6,19.1,10.8,26.2c7.1,7.1,15.9,10.7,26,10.7c6.7,0,13-1.7,18.7-4.9c5.7-3.3,10.3-7.8,13.5-13.5
				c3.2-5.7,4.8-12,4.8-18.9c0-6.8-1.6-13.1-4.8-18.7c-3.2-5.6-7.8-10.1-13.6-13.4C548.3,62.7,542,61,535.5,61L535.5,61z"/>
		</g>
	</g>
	<g>
		<path class="st0" d="M168.9,157v-10.7h-4.3V145h10.1v1.3h-4.3V157H168.9z"/>
		<path class="st0" d="M177.4,157v-8.6h1.3l0.1,1.7c0.3-0.5,0.7-1,1.4-1.4c0.6-0.4,1.3-0.5,2-0.5v1.6c-0.8-0.1-1.6,0-2.3,0.4
			c-0.7,0.4-1,1-1,1.7v5.1H177.4z"/>
		<path class="st0" d="M190,157.3c-1.2,0-2.1-0.4-2.9-1.3c-0.8-0.9-1.2-2-1.2-3.2c0-1.3,0.4-2.4,1.2-3.2c0.8-0.9,1.8-1.3,2.9-1.3
			c0.7,0,1.4,0.2,2,0.5s1.1,0.8,1.4,1.3l0.1-1.6h1.3v8.6h-1.3l-0.1-1.6c-0.4,0.6-0.8,1-1.4,1.3S190.7,157.3,190,157.3z M188.3,155.1
			c0.6,0.6,1.3,0.9,2.1,0.9c0.8,0,1.5-0.3,2.1-0.9c0.6-0.6,0.9-1.4,0.9-2.4s-0.3-1.8-0.9-2.4c-0.6-0.6-1.3-0.9-2.1-0.9
			c-0.8,0-1.5,0.3-2.1,0.9c-0.6,0.6-0.9,1.4-0.9,2.4S187.7,154.5,188.3,155.1z"/>
		<path class="st0" d="M199.9,146.7V145h1.5v1.7H199.9z M199.9,157v-8.6h1.5v8.6H199.9z"/>
		<path class="st0" d="M206.6,157v-8.6h1.3l0.1,1.7c0.3-0.5,0.8-1,1.4-1.4c0.6-0.4,1.3-0.5,2-0.5c2.1,0,3.1,1.2,3.1,3.7v5.1H213v-5
			c0-0.9-0.2-1.6-0.5-2s-0.8-0.6-1.5-0.6s-1.3,0.2-1.9,0.7c-0.6,0.5-0.9,1.1-0.9,1.7v5.1h-1.6V157z"/>
		<path class="st0" d="M219.6,146.7V145h1.5v1.7H219.6z M219.6,157v-8.6h1.5v8.6H219.6z"/>
		<path class="st0" d="M226.3,157v-8.6h1.3l0.1,1.7c0.3-0.5,0.8-1,1.4-1.4s1.3-0.5,2-0.5c2.1,0,3.1,1.2,3.1,3.7v5.1h-1.5v-5
			c0-0.9-0.2-1.6-0.5-2c-0.3-0.4-0.8-0.6-1.5-0.6c-0.7,0-1.3,0.2-1.9,0.7s-0.9,1.1-0.9,1.7v5.1h-1.6V157z"/>
		<path class="st0" d="M243.1,161.1c-1.2,0-2.4-0.3-3.6-1v-1.4c0.7,0.4,1.3,0.7,1.8,0.9s1.2,0.3,1.9,0.3c0.8,0,1.5-0.3,2.1-0.8
			c0.5-0.6,0.8-1.4,0.8-2.6v-0.8c-0.8,1.1-1.9,1.6-3.3,1.6c-1.2,0-2.1-0.4-2.9-1.3c-0.8-0.9-1.2-2-1.2-3.2c0-1.3,0.4-2.4,1.2-3.2
			c0.8-0.9,1.8-1.3,2.9-1.3c0.7,0,1.4,0.2,2,0.5s1.1,0.8,1.4,1.3l0.1-1.6h1.3v7.9c0,0.9-0.1,1.8-0.4,2.4c-0.3,0.7-0.6,1.2-1.1,1.5
			s-1,0.6-1.4,0.7C244.2,161,243.7,161.1,243.1,161.1z M241.2,155.1c0.6,0.6,1.3,0.9,2.1,0.9c0.8,0,1.5-0.3,2.1-0.9
			c0.6-0.6,0.9-1.4,0.9-2.4s-0.3-1.8-0.9-2.4c-0.6-0.6-1.3-0.9-2.1-0.9c-0.8,0-1.5,0.3-2.1,0.9c-0.6,0.6-0.9,1.4-0.9,2.4
			S240.6,154.5,241.2,155.1z"/>
		<path class="st0" d="M259.8,159v-15.6h1V159H259.8z"/>
		<path class="st0" d="M272.9,157v-12h3.7c2.2,0,3.9,0.6,5,1.7c1.1,1.1,1.7,2.6,1.7,4.3s-0.6,3.2-1.7,4.3c-1.1,1.1-2.8,1.7-5,1.7
			H272.9z M274.5,155.6h2.1c1.8,0,3.1-0.4,3.8-1.3c0.8-0.9,1.1-2,1.1-3.3c0-1.3-0.4-2.5-1.1-3.3c-0.8-0.9-2-1.3-3.8-1.3h-2.1V155.6z
			"/>
		<path class="st0" d="M291.8,157.3c-1.3,0-2.3-0.4-3.1-1.3c-0.8-0.9-1.2-2-1.2-3.3s0.4-2.4,1.2-3.3c0.8-0.8,1.8-1.3,2.9-1.3
			c1.1,0,2,0.3,2.6,0.9c0.7,0.6,1,1.4,1,2.4c0,0.3,0,0.6-0.1,1h-6.2c0,0.4,0,0.8,0.1,1.2s0.3,0.8,0.5,1.1c0.2,0.4,0.6,0.7,1.1,0.9
			s1,0.3,1.7,0.3c0.5,0,1-0.1,1.5-0.3s1-0.5,1.3-0.8v1.3C294.3,156.9,293.1,157.3,291.8,157.3z M289.1,151.4h4.7
			c0.1-0.6-0.1-1.1-0.5-1.5c-0.4-0.4-1-0.6-1.7-0.6s-1.2,0.2-1.7,0.5C289.5,150.2,289.2,150.8,289.1,151.4z"/>
		<path class="st0" d="M302.4,157.1l-3.8-8.7h1.6l2.8,6.5l2.8-6.5h1.5l-3.8,8.7H302.4z"/>
		<path class="st0" d="M314.8,157.3c-1.3,0-2.3-0.4-3.1-1.3c-0.8-0.9-1.2-2-1.2-3.3s0.4-2.4,1.2-3.3c0.8-0.8,1.8-1.3,2.9-1.3
			c1.1,0,2,0.3,2.6,0.9c0.7,0.6,1,1.4,1,2.4c0,0.3,0,0.6-0.1,1H312c0,0.4,0,0.8,0.1,1.2s0.3,0.8,0.5,1.1c0.2,0.4,0.6,0.7,1.1,0.9
			s1,0.3,1.7,0.3c0.5,0,1-0.1,1.5-0.3s1-0.5,1.3-0.8v1.3C317.4,156.9,316.2,157.3,314.8,157.3z M312.1,151.4h4.7
			c0.1-0.6-0.1-1.1-0.5-1.5c-0.4-0.4-1-0.6-1.7-0.6s-1.2,0.2-1.7,0.5C312.6,150.2,312.3,150.8,312.1,151.4z"/>
		<path class="st0" d="M323.1,157v-12h1.5v12H323.1z"/>
		<path class="st0" d="M333.9,157.4c-1.4,0-2.5-0.4-3.4-1.3s-1.3-2-1.3-3.3s0.4-2.4,1.3-3.3c0.9-0.9,2-1.4,3.4-1.4s2.5,0.5,3.4,1.4
			s1.3,2,1.3,3.3s-0.4,2.4-1.3,3.3C336.4,156.9,335.3,157.4,333.9,157.4z M331.6,155.2c0.6,0.7,1.4,1,2.3,1c0.9,0,1.7-0.3,2.3-1
			s0.9-1.5,0.9-2.4c0-1-0.3-1.8-0.9-2.4s-1.3-1-2.3-1s-1.7,0.3-2.3,1s-0.9,1.5-0.9,2.4C330.7,153.7,331,154.5,331.6,155.2z"/>
		<path class="st0" d="M343.1,160.9v-12.5h1.3l0.1,1.6c0.4-0.6,0.8-1,1.4-1.3c0.6-0.3,1.3-0.5,2-0.5c1.2,0,2.1,0.4,2.9,1.3
			c0.8,0.9,1.2,2,1.2,3.2c0,1.3-0.4,2.4-1.2,3.2c-0.8,0.8-1.8,1.3-2.9,1.3c-1.4,0-2.5-0.5-3.3-1.6v5.3L343.1,160.9L343.1,160.9z
			 M345.4,155.1c0.6,0.6,1.3,0.9,2.1,0.9s1.5-0.3,2.1-0.9c0.6-0.6,0.9-1.4,0.9-2.4s-0.3-1.8-0.9-2.4c-0.6-0.6-1.3-0.9-2.1-0.9
			s-1.5,0.3-2.1,0.9c-0.6,0.6-0.9,1.4-0.9,2.4S344.8,154.5,345.4,155.1z"/>
		<path class="st0" d="M356.7,157v-8.6h1.3l0.1,1.7c0.8-1.3,1.9-1.9,3.2-1.9c1.5,0,2.4,0.7,2.7,2c0.9-1.3,2-2,3.3-2
			c1.1,0,1.8,0.3,2.3,1s0.6,1.6,0.6,2.8v5.1h-1.5v-5c0-0.9-0.1-1.6-0.4-2c-0.3-0.4-0.8-0.6-1.4-0.6c-0.7,0-1.3,0.2-1.8,0.7
			c-0.6,0.5-0.8,1.1-0.8,1.8v5.1h-1.5v-5c0-0.9-0.1-1.6-0.4-2s-0.8-0.6-1.4-0.6c-0.7,0-1.3,0.2-1.8,0.7c-0.6,0.5-0.8,1.1-0.8,1.8
			v5.1h-1.7V157z"/>
		<path class="st0" d="M379.2,157.3c-1.3,0-2.3-0.4-3.1-1.3c-0.8-0.9-1.2-2-1.2-3.3s0.4-2.4,1.2-3.3c0.8-0.8,1.8-1.3,2.9-1.3
			c1.1,0,2,0.3,2.6,0.9c0.7,0.6,1,1.4,1,2.4c0,0.3,0,0.6-0.1,1h-6.2c0,0.4,0,0.8,0.1,1.2s0.3,0.8,0.5,1.1c0.2,0.4,0.6,0.7,1.1,0.9
			s1,0.3,1.7,0.3c0.5,0,1-0.1,1.5-0.3s1-0.5,1.3-0.8v1.3C381.7,156.9,380.6,157.3,379.2,157.3z M376.5,151.4h4.7
			c0.1-0.6-0.1-1.1-0.5-1.5c-0.4-0.4-1-0.6-1.7-0.6s-1.2,0.2-1.7,0.5C376.9,150.2,376.6,150.8,376.5,151.4z"/>
		<path class="st0" d="M387.5,157v-8.6h1.3l0.1,1.7c0.3-0.5,0.8-1,1.4-1.4s1.3-0.5,2-0.5c2.1,0,3.1,1.2,3.1,3.7v5.1h-1.5v-5
			c0-0.9-0.2-1.6-0.5-2s-0.8-0.6-1.5-0.6s-1.3,0.2-1.9,0.7s-0.9,1.1-0.9,1.7v5.1h-1.6V157z"/>
		<path class="st0" d="M401.5,157v-7.6h-1.9v-1h1.9V146h1.5v2.4h2v1h-2v7.6H401.5z"/>
		<path class="st0" d="M416.2,159v-15.6h1V159H416.2z"/>
		<path class="st0" d="M432.3,157l-4.1-12h1.6l2.9,8.9c0,0.1,0.1,0.2,0.1,0.4s0.1,0.3,0.1,0.3c0-0.1,0.1-0.4,0.2-0.7l2.8-8.9h1
			l2.8,8.9l0.2,0.7c0.1-0.3,0.1-0.6,0.2-0.7l2.9-8.9h1.6l-4.1,12h-1l-2.8-8.2c0-0.1,0-0.1-0.1-0.2c0-0.1-0.1-0.2-0.1-0.3
			c0-0.1,0-0.1,0-0.1v0.1c0,0.1-0.1,0.2-0.1,0.3s-0.1,0.2-0.1,0.2l-2.8,8.2H432.3z"/>
		<path class="st0" d="M451.4,157.3c-1.3,0-2.3-0.4-3.1-1.3s-1.2-2-1.2-3.3s0.4-2.4,1.2-3.3c0.8-0.8,1.8-1.3,2.9-1.3s2,0.3,2.6,0.9
			c0.7,0.6,1,1.4,1,2.4c0,0.3,0,0.6-0.1,1h-6.2c0,0.4,0,0.8,0.1,1.2s0.3,0.8,0.5,1.1c0.2,0.4,0.6,0.7,1.1,0.9s1,0.3,1.7,0.3
			c0.5,0,1-0.1,1.5-0.3s1-0.5,1.3-0.8v1.3C453.9,156.9,452.8,157.3,451.4,157.3z M448.7,151.4h4.7c0.1-0.6-0.1-1.1-0.5-1.5
			c-0.4-0.4-1-0.6-1.7-0.6s-1.2,0.2-1.7,0.5C449.1,150.2,448.8,150.8,448.7,151.4z"/>
		<path class="st0" d="M464.4,157.3c-0.7,0-1.4-0.2-2-0.5s-1.1-0.8-1.4-1.3v1.5h-1.3v-12h1.5v4.7c0.8-1.1,1.9-1.6,3.3-1.6
			c1.2,0,2.1,0.4,2.9,1.3c0.8,0.9,1.2,2,1.2,3.2c0,1.3-0.4,2.4-1.2,3.2C466.6,156.6,465.6,157.3,464.4,157.3z M461.9,155.1
			c0.6,0.6,1.3,0.9,2.1,0.9s1.5-0.3,2.1-0.9c0.6-0.6,0.9-1.4,0.9-2.4s-0.3-1.8-0.9-2.4c-0.6-0.6-1.3-0.9-2.1-0.9s-1.5,0.3-2.1,0.9
			c-0.6,0.6-0.9,1.4-0.9,2.4S461.4,154.5,461.9,155.1z"/>
		<path class="st0" d="M483.1,157.3c-0.9,0-1.7-0.1-2.4-0.4c-0.7-0.3-1.2-0.6-1.6-1l0.4-1.5c1,1.1,2.2,1.6,3.6,1.6
			c0.7,0,1.3-0.2,1.8-0.6c0.5-0.4,0.7-0.9,0.7-1.5c0-0.6-0.2-1.1-0.6-1.5c-0.4-0.4-1.1-0.7-2.2-1c-2.2-0.6-3.3-1.8-3.3-3.5
			c0-0.9,0.3-1.6,1-2.2c0.7-0.6,1.6-0.9,2.8-0.9c1.3,0,2.4,0.4,3.3,1.1l-0.4,1.3c-1-0.7-1.9-1.1-2.9-1.1c-0.7,0-1.3,0.2-1.7,0.5
			c-0.4,0.3-0.6,0.8-0.6,1.3s0.2,0.9,0.5,1.2c0.4,0.3,1,0.6,1.9,0.9c1.3,0.3,2.3,0.8,2.9,1.4s0.9,1.4,0.9,2.4c0,1.1-0.4,2-1.2,2.6
			C485.2,157,484.2,157.3,483.1,157.3z"/>
		<path class="st0" d="M495.8,157.4c-1.4,0-2.5-0.4-3.4-1.3s-1.3-2-1.3-3.3s0.4-2.4,1.3-3.3s2-1.4,3.4-1.4s2.5,0.5,3.4,1.4
			s1.3,2,1.3,3.3s-0.4,2.4-1.3,3.3C498.3,156.9,497.2,157.4,495.8,157.4z M493.5,155.2c0.6,0.7,1.4,1,2.3,1s1.7-0.3,2.3-1
			s0.9-1.5,0.9-2.4c0-1-0.3-1.8-0.9-2.4s-1.3-1-2.3-1s-1.7,0.3-2.3,1c-0.6,0.7-0.9,1.5-0.9,2.4C492.6,153.7,492.9,154.5,493.5,155.2
			z"/>
		<path class="st0" d="M505.1,157v-12h1.5v12H505.1z"/>
		<path class="st0" d="M514.8,157.3c-2.1,0-3.1-1.2-3.1-3.7v-5.1h1.5v5c0,0.9,0.2,1.6,0.5,2c0.3,0.4,0.8,0.6,1.5,0.6
			c0.7,0,1.3-0.2,1.9-0.7s0.9-1.1,0.9-1.7v-5.1h1.5v8.6h-1.3l-0.1-1.7c-0.3,0.5-0.8,1-1.4,1.4C516.2,157.1,515.5,157.3,514.8,157.3z
			"/>
		<path class="st0" d="M525.8,157v-7.6h-1.9v-1h1.9V146h1.5v2.4h2v1h-2v7.6H525.8z"/>
		<path class="st0" d="M533.5,146.7V145h1.5v1.7H533.5z M533.5,157v-8.6h1.5v8.6H533.5z"/>
		<path class="st0" d="M544.3,157.4c-1.4,0-2.5-0.4-3.4-1.3c-0.9-0.9-1.3-2-1.3-3.3s0.4-2.4,1.3-3.3c0.9-0.9,2-1.4,3.4-1.4
			s2.5,0.5,3.4,1.4c0.9,0.9,1.3,2,1.3,3.3s-0.4,2.4-1.3,3.3C546.7,156.9,545.6,157.4,544.3,157.4z M542,155.2c0.6,0.7,1.4,1,2.3,1
			s1.7-0.3,2.3-1s0.9-1.5,0.9-2.4c0-1-0.3-1.8-0.9-2.4s-1.3-1-2.3-1s-1.7,0.3-2.3,1s-0.9,1.5-0.9,2.4
			C541.1,153.7,541.4,154.5,542,155.2z"/>
		<path class="st0" d="M553.5,157v-8.6h1.3l0.1,1.7c0.3-0.5,0.8-1,1.4-1.4s1.3-0.5,2-0.5c2.1,0,3.1,1.2,3.1,3.7v5.1h-1.5v-5
			c0-0.9-0.2-1.6-0.5-2c-0.3-0.4-0.8-0.6-1.5-0.6c-0.7,0-1.3,0.2-1.9,0.7s-0.9,1.1-0.9,1.7v5.1h-1.6V157z"/>
		<path class="st0" d="M569.1,157.3c-0.5,0-1.1-0.1-1.6-0.2s-0.9-0.3-1.2-0.4l-0.4-0.2l0.3-1.2c1,0.6,1.9,0.9,2.9,0.9
			c1.3,0,1.9-0.4,1.9-1.3c0-0.4-0.2-0.7-0.5-0.9c-0.4-0.2-0.9-0.5-1.7-0.6c-0.9-0.2-1.6-0.6-2-1c-0.4-0.4-0.7-1-0.7-1.5
			c0-0.7,0.3-1.3,0.8-1.8s1.3-0.7,2.3-0.7c0.4,0,0.9,0.1,1.3,0.2c0.4,0.1,0.8,0.2,1,0.4l0.4,0.2l-0.3,1.2c-0.7-0.5-1.5-0.7-2.4-0.7
			c-1.2,0-1.8,0.4-1.8,1.1s0.6,1.2,1.9,1.5c2,0.5,3,1.3,3,2.5c0,0.9-0.3,1.6-0.9,2.1C570.9,157,570.1,157.3,569.1,157.3z"/>
	</g>
</g>
</svg>
